<svg width="120" height="103" viewBox="0 0 120 103" fill="none" xmlns="http://www.w3.org/2000/svg">
<path d="M27.5 90.125C15.0736 90.125 5 81.4785 5 70.8125C5 60.1464 15.0736 51.5 27.5 51.5C39.9264 51.5 50 60.1464 50 70.8125C50 81.4785 39.9264 90.125 27.5 90.125ZM27.5 81.5416C34.4035 81.5416 40 76.738 40 70.8125C40 64.887 34.4035 60.0833 27.5 60.0833C20.5964 60.0833 15 64.887 15 70.8125C15 76.738 20.5964 81.5416 27.5 81.5416ZM92.5 90.125C80.0735 90.125 70 81.4785 70 70.8125C70 60.1464 80.0735 51.5 92.5 51.5C104.926 51.5 115 60.1464 115 70.8125C115 81.4785 104.926 90.125 92.5 90.125ZM92.5 81.5416C99.4035 81.5416 105 76.738 105 70.8125C105 64.887 99.4035 60.0833 92.5 60.0833C85.5965 60.0833 80 64.887 80 70.8125C80 76.738 85.5965 81.5416 92.5 81.5416ZM55.115 44.2273L65 51.5V77.25H55V55.7916L41.4058 46.068C40.911 45.7753 40.4401 45.4401 40 45.0625C36.0947 41.7105 36.0947 36.2758 40 32.9238L54.142 20.7851C58.0475 17.4331 64.379 17.4331 68.2845 20.7851L75.3555 26.8545C80.873 31.5903 87.774 34.4145 94.942 35.3269L94.89 43.9784C85.1675 43.0102 75.7425 39.3255 68.2845 32.9238L55.115 44.2273ZM80 21.4583C74.477 21.4583 70 17.6154 70 12.875C70 8.13451 74.477 4.29163 80 4.29163C85.523 4.29163 90 8.13451 90 12.875C90 17.6154 85.523 21.4583 80 21.4583Z" fill="#019961"/>
</svg>
