<svg width="234" height="232" viewBox="0 0 234 232" fill="none" xmlns="http://www.w3.org/2000/svg">
<g clip-path="url(#clip0_35_1241)">
<path d="M159.262 128.407L195.016 104.844L206.296 121.96C208.372 125.111 207.388 129.424 204.097 131.593L180.261 147.301C176.97 149.47 172.619 148.674 170.542 145.523L159.262 128.407ZM68.318 171.975C65.0269 174.144 60.6758 173.348 58.5992 170.197L43.5593 147.376C41.4827 144.225 42.4671 139.912 45.7582 137.744L129.183 82.7644L104.743 45.6799L116.217 38.1178C118.337 36.7211 121.007 36.5072 123.23 37.5562L163.056 56.3493L187.496 93.4339L68.318 171.975Z" fill="#009961"/>
</g>
<defs>
<clipPath id="clip0_35_1241">
<rect width="163.989" height="171.277" fill="white" transform="translate(143.014) rotate(56.614)"/>
</clipPath>
</defs>
</svg>
