<svg width="841" height="430" viewBox="0 0 841 430" fill="none" xmlns="http://www.w3.org/2000/svg">
<path d="M502.221 25.0998C512.175 27.3706 518.748 38.1595 519.389 48.1456C520.011 58.1167 516.12 67.445 512.312 76.391C504.768 94.0195 485.767 123.546 478.246 134.979C484.03 130.89 489.857 126.86 495.818 122.993C510.859 113.29 526.628 104.661 543.016 97.163C551.314 93.6318 559.503 89.9061 568.095 86.9927C571.812 85.5369 575.605 84.2404 579.411 83.0003C576.926 66.1478 581.26 49.4541 586.593 33.7677C590.796 21.3293 596.47 8.20379 608.284 2.4166C612.659 0.261261 618.082 -0.657928 622.778 1.44886C630.2 4.78932 632.932 14.1847 632.113 21.9177C630.83 34.1532 623.433 44.4772 615.384 53.4243C607.627 62.066 590.284 76.0661 582.98 81.8584C586.609 80.7187 590.263 79.6205 593.887 78.4857C618.659 71.457 644.237 66.8742 670.264 64.7972C669.202 38.4347 691.456 14.6638 718.134 14.2511C720.307 14.0645 722.521 14.4712 724.553 15.4475C730.646 18.9165 728.633 27.8682 725.051 33.3396C716.344 46.551 687.045 59.5507 675.278 64.3919C701.35 62.6194 727.715 63.3924 753.994 66.6919C763.711 64.8535 793.915 57.3218 802.843 56.7629C811.288 56.2331 820.249 57.0258 827.879 61.3366C835.49 65.634 841.367 74.1337 840.382 82.4181C838.879 94.8032 823.983 100.129 811.213 99.5093C794.723 98.7101 763.144 76.1077 753.77 69.1291C728.449 66.1363 703.077 65.5216 677.972 67.2687C685.058 69.5762 711.575 78.2321 722.979 83.0171C736.214 88.5845 749.76 98.8532 751.298 112.712C752.013 119.187 748.804 126.541 742.39 127.406C737.2 128.088 732.241 124.436 728.084 120.914C709.132 104.84 691.913 86.8832 676.714 67.3485C648.878 69.3652 621.536 74.2633 595.144 81.9739C591.151 83.2548 587.132 84.4941 583.131 85.7832C594.661 87.6028 642.378 95.6531 662.603 107.349C671.948 112.758 681.806 122.987 677.806 132.264C675.681 137.174 670.033 139.748 664.492 139.807C658.952 139.864 653.474 137.852 648.239 135.591C624.726 125.456 598.836 105.618 581.461 86.3455C577.481 87.6464 573.532 89.0171 569.665 90.5787C561.194 93.5281 553.107 97.2765 544.921 100.821C528.776 108.356 513.257 117.013 498.458 126.719C490.966 131.662 483.628 136.818 476.419 142.144C499.665 133.974 524.865 131.224 550.129 134.069C560.993 135.311 572.28 137.807 581.208 144.559C590.134 151.313 595.973 163.352 592.34 173.199C588.199 184.531 574.085 188.444 561.584 187.974C529.458 186.803 500.106 166.769 474.094 146.288L472.646 144.95C452.72 159.829 433.45 175.654 413.417 190.624C402.063 199.048 390.42 207.097 378.455 214.737C399.703 211.187 467.305 201.265 502.321 211.861C510.995 214.488 520.32 218.35 524.8 226.236C529.05 233.715 527.531 243.194 522.465 249.473C517.382 255.736 509.337 259.115 501.118 260.308C490.94 261.758 480.371 260.171 470.031 258.386C434.845 252.306 399.09 243.466 373.707 217.721C340.87 238.388 305.825 255.68 269.096 269.378C289.51 266.695 326.348 262.571 347.543 264.502C362.927 265.916 378.742 268.54 392.382 276.487C401.666 281.896 409.522 289.544 416.577 297.666C422.508 304.498 428.223 312.403 428.562 321.1C428.924 330.163 423.094 338.227 415.396 342.591C407.7 346.953 398.409 348.151 389.27 348.243C370.82 348.309 352.298 344.358 334.998 336.659C317.699 328.959 302.062 317.712 289.182 303.704C282.841 296.711 265.126 282.899 256.574 273.853C244.748 277.908 232.772 281.567 220.644 284.833C192.271 292.435 163.099 297.547 133.471 300.125C160.462 306.835 246.936 329.416 287.416 353.309C304.303 363.274 322.383 377.764 322.937 396.625C323.456 414.456 306.544 428.023 288.724 429.599C270.886 431.159 252.876 423.508 236.779 414.331C190.255 387.804 149.66 348.389 126.529 300.716C121.687 301.063 116.823 301.329 111.971 301.545C74.8533 303.143 37.362 300.114 0.346874 292.498L1.55419 284.311C37.5248 291.971 73.9842 295.208 110.116 293.978L109.584 293.28L112.047 229.13C112.477 217.892 112.923 206.6 115.165 195.705C117.501 184.058 122.006 173.085 128.46 163.329C139.57 146.737 160.22 133.934 180.329 140.738C184.772 142.07 188.767 144.746 191.751 148.391C196.255 154.359 196.197 162.272 195.229 169.325C190.366 205.039 168.401 234.75 146.983 262.858C137.581 275.169 127.44 287.989 112.988 293.865C148.87 292.428 184.219 287.191 218.438 278.247C225.789 276.357 233.067 274.268 240.295 272.059C237.293 260.197 226.192 215.614 224.308 194.707C222.131 170.469 227.585 145.796 241.513 126.873C246.455 120.168 252.864 113.959 261.231 112.236C271.91 110.058 283.763 116.029 290.669 125.038C297.592 134.062 300.18 145.552 300.149 156.465C300.115 173.41 294.352 189.349 288.626 204.923C279.923 228.579 269.819 253.66 250.538 268.821C292.969 254.805 333.337 235.996 370.845 212.721C364.689 196.524 358.651 180.188 355.787 163.351C352.779 145.719 353.469 127.294 360.945 111.777C364.493 104.419 369.764 97.6504 377.212 94.1491C384.66 90.6479 394.532 91.018 401.277 96.5775C407.733 101.904 410.098 110.516 411.43 118.516C414.011 134.079 397.366 185.281 382.286 205.479C391.734 199.355 400.996 192.985 410.071 186.369C431.579 170.566 452.327 153.62 474.104 137.895C456.688 107.543 457.579 67.6281 475.519 40.0914C481.396 31.0798 491.127 22.5566 502.221 25.0998Z" fill="url(#paint0_linear_38_1155)"/>
<defs>
<linearGradient id="paint0_linear_38_1155" x1="809.95" y1="384.62" x2="-37.5898" y2="462.474" gradientUnits="userSpaceOnUse">
<stop stop-color="#B5D653"/>
<stop offset="0.995" stop-color="#019961"/>
</linearGradient>
</defs>
</svg>
