<svg width="528" height="866" viewBox="0 0 528 866" fill="none" xmlns="http://www.w3.org/2000/svg">
<path d="M52.4127 379.824C53.0176 368.547 63.3697 359.082 73.9514 356.219C84.5202 353.378 95.2293 355.566 105.514 357.747C125.786 362.089 160.911 376.257 174.542 381.921C169.099 376.542 163.711 371.106 158.473 365.489C145.315 351.304 133.173 336.096 122.13 319.972C116.823 311.751 111.327 303.689 106.627 295.014C104.385 291.304 102.299 287.477 100.272 283.623C82.6721 289.977 63.9901 288.909 46.204 286.54C32.1054 284.69 17.0005 281.395 8.63037 269.855C5.51753 265.584 3.5367 259.909 4.93163 254.364C7.1474 245.598 16.7121 240.597 25.1475 239.803C38.4926 238.535 50.9124 244.305 61.9768 251.08C72.6602 257.606 90.8453 273.351 98.3926 280.004C96.5051 276.321 94.6574 272.601 92.7759 268.922C80.6958 243.614 71.088 216.901 64.0827 189.158C36.0325 196.036 6.47702 177.094 1.13524 148.284C0.536179 145.97 0.565314 143.483 1.23808 141.069C3.83587 133.716 13.7965 133.951 20.3165 136.642C36.0705 143.204 55.3796 172.119 62.7276 183.814C56.0402 155.956 52.0263 127.227 50.735 98.0419C46.9808 87.9151 33.3639 56.8312 31.1254 47.2813C29.0068 38.2478 28.2103 28.3679 31.4277 19.1658C34.6342 9.98721 42.6615 1.77356 51.7185 1.04049C65.264 -0.0225215 73.706 14.9573 75.3873 28.9253C77.5595 46.9627 59.1428 86.0831 53.3875 97.7549C54.8313 125.835 58.8324 153.454 65.315 180.27C66.4859 172.093 70.8899 141.486 73.9223 128.093C77.4564 112.545 85.9707 95.6399 100.536 90.9627C107.343 88.7811 115.811 90.6596 117.916 97.4196C119.6 102.893 116.598 109.06 113.588 114.328C99.847 138.351 83.77 160.906 65.6315 181.616C72.9045 211.332 83.1741 239.887 96.2824 266.803C98.3882 270.85 100.454 274.935 102.57 278.988C102.402 266.103 102.264 212.662 111.081 188.21C115.16 176.912 124.308 164.01 134.983 166.327C140.633 167.563 144.428 173.122 145.509 179.112C146.588 185.101 145.439 191.473 143.977 197.634C137.437 225.308 120.937 257.665 103.479 280.676C105.604 284.705 107.798 288.684 110.181 292.534C114.897 301.07 120.398 309.016 125.699 317.114C136.737 332.967 148.863 347.897 161.98 361.82C168.652 368.861 175.524 375.691 182.554 382.343C169.532 358.936 161.957 332.234 160.365 304.248C159.701 292.208 160.302 279.439 165.897 268.3C171.494 257.163 183.32 248.222 194.537 250.017C207.439 252.041 214.224 266.481 216.016 280.126C220.662 315.182 204.587 351.332 187.421 383.961L186.254 385.821C205.855 404.173 226.349 421.609 246.067 440.059C257.178 450.528 267.94 461.392 278.324 472.693C270.617 450.447 247.571 379.369 252.494 339.135C253.714 329.167 256.14 318.226 263.766 311.659C270.999 305.431 281.434 305.017 289.091 309.139C296.736 313.285 301.833 321.266 304.621 329.911C308.044 340.621 308.284 352.416 308.271 364.004C308.219 403.443 305.314 444.096 282.392 477.188C310.566 508.27 335.529 542.476 356.951 579.289C350.327 557.757 339.143 518.747 337.32 495.367C336.01 478.393 335.916 460.692 341.926 444.188C346.015 432.956 352.767 422.784 360.173 413.377C366.404 405.467 373.824 397.558 383.08 395.301C392.724 392.939 402.434 397.502 408.524 404.893C414.611 412.283 417.6 422.088 419.377 431.967C422.836 451.94 422.005 472.864 416.934 493.278C411.861 513.69 402.682 533.074 390.04 550.07C383.711 558.46 372.167 580.651 364.046 591.881C370.562 603.811 376.682 615.99 382.409 628.418C395.765 657.503 406.599 687.994 414.803 719.53C417.035 688.832 425.347 590.249 443.512 541.205C451.087 520.746 463.291 498.012 483.397 493.314C502.406 488.877 520.048 504.25 525.009 523.211C529.957 542.196 525.067 563.369 518.192 582.801C498.314 638.965 463.54 691.505 416.711 726.922C417.971 732.091 419.15 737.303 420.272 742.512C428.802 782.374 432.442 823.647 431.08 865.4L422.086 865.871C423.687 825.24 420.46 785.04 412.506 746.166L411.855 746.893L342.672 758.165C330.553 760.141 318.373 762.111 306.288 762.05C293.38 762.05 280.796 759.554 269.157 754.683C249.34 746.252 231.831 726.664 235.427 703.401C236.039 698.299 238.171 693.389 241.529 689.366C247.096 683.19 255.585 681.533 263.319 681.049C302.476 678.556 338.343 695.896 372.392 712.99C387.31 720.5 402.908 728.7 411.858 743.079C403.728 704.52 391.625 667.365 375.757 632.239C372.382 624.686 368.807 617.256 365.113 609.906C352.956 615.736 307.228 637.449 285.173 644.032C259.604 651.658 232.168 651.11 209.335 640.133C201.244 636.237 193.414 630.644 190.031 621.953C185.737 610.859 189.958 596.721 198.341 587.282C206.738 577.821 218.573 572.521 230.272 570.183C248.433 566.538 266.568 569.318 284.307 572.137C311.251 576.424 339.978 581.92 359.762 599.514C336.952 556.594 309.387 516.95 277.561 481.375C261.338 491.564 244.944 501.654 227.43 508.415C209.092 515.505 189.224 518.761 171.227 514.034C162.691 511.789 154.471 507.55 149.352 500.242C144.233 492.934 142.816 482.16 147.534 473.645C152.055 465.494 160.848 461.061 169.175 457.879C185.376 451.701 243.29 458.607 267.701 470.554C259.404 461.65 250.878 453.001 242.123 444.608C221.242 424.742 199.275 405.948 178.427 385.774C149.106 411.236 106.177 418.944 73.379 405.493C62.6444 401.084 51.7254 392.395 52.4127 379.824Z" fill="url(#paint0_linear_38_1159)"/>
<defs>
<linearGradient id="paint0_linear_38_1159" x1="381.091" y1="-31.6582" x2="649.209" y2="860.837" gradientUnits="userSpaceOnUse">
<stop stop-color="#B5D653"/>
<stop offset="0.995" stop-color="#019961"/>
</linearGradient>
</defs>
</svg>
